<?xml version="1.0" encoding="utf-8"?>
<svg xmlns="http://www.w3.org/2000/svg" xmlns:xlink="http://www.w3.org/1999/xlink" style="margin: auto; background: rgb(255, 255, 255); display: block; shape-rendering: auto;" width="200px" height="200px" viewBox="0 0 100 100" preserveAspectRatio="xMidYMid">
<g transform="rotate(0 50 50)">
  <rect x="47" y="24" rx="3" ry="6" width="6" height="12" fill="#bc6c25">
    <animate attributeName="opacity" values="1;0" keyTimes="0;1" dur="0.6097560975609756s" begin="-0.5420054200542005s" repeatCount="indefinite"></animate>
  </rect>
</g><g transform="rotate(40 50 50)">
  <rect x="47" y="24" rx="3" ry="6" width="6" height="12" fill="#bc6c25">
    <animate attributeName="opacity" values="1;0" keyTimes="0;1" dur="0.6097560975609756s" begin="-0.47425474254742545s" repeatCount="indefinite"></animate>
  </rect>
</g><g transform="rotate(80 50 50)">
  <rect x="47" y="24" rx="3" ry="6" width="6" height="12" fill="#bc6c25">
    <animate attributeName="opacity" values="1;0" keyTimes="0;1" dur="0.6097560975609756s" begin="-0.40650406504065034s" repeatCount="indefinite"></animate>
  </rect>
</g><g transform="rotate(120 50 50)">
  <rect x="47" y="24" rx="3" ry="6" width="6" height="12" fill="#bc6c25">
    <animate attributeName="opacity" values="1;0" keyTimes="0;1" dur="0.6097560975609756s" begin="-0.3387533875338753s" repeatCount="indefinite"></animate>
  </rect>
</g><g transform="rotate(160 50 50)">
  <rect x="47" y="24" rx="3" ry="6" width="6" height="12" fill="#bc6c25">
    <animate attributeName="opacity" values="1;0" keyTimes="0;1" dur="0.6097560975609756s" begin="-0.27100271002710025s" repeatCount="indefinite"></animate>
  </rect>
</g><g transform="rotate(200 50 50)">
  <rect x="47" y="24" rx="3" ry="6" width="6" height="12" fill="#bc6c25">
    <animate attributeName="opacity" values="1;0" keyTimes="0;1" dur="0.6097560975609756s" begin="-0.20325203252032517s" repeatCount="indefinite"></animate>
  </rect>
</g><g transform="rotate(240 50 50)">
  <rect x="47" y="24" rx="3" ry="6" width="6" height="12" fill="#bc6c25">
    <animate attributeName="opacity" values="1;0" keyTimes="0;1" dur="0.6097560975609756s" begin="-0.13550135501355012s" repeatCount="indefinite"></animate>
  </rect>
</g><g transform="rotate(280 50 50)">
  <rect x="47" y="24" rx="3" ry="6" width="6" height="12" fill="#bc6c25">
    <animate attributeName="opacity" values="1;0" keyTimes="0;1" dur="0.6097560975609756s" begin="-0.06775067750677506s" repeatCount="indefinite"></animate>
  </rect>
</g><g transform="rotate(320 50 50)">
  <rect x="47" y="24" rx="3" ry="6" width="6" height="12" fill="#bc6c25">
    <animate attributeName="opacity" values="1;0" keyTimes="0;1" dur="0.6097560975609756s" begin="0s" repeatCount="indefinite"></animate>
  </rect>
</g>
<!-- [ldio] generated by https://loading.io/ --></svg>